<svg xmlns="http://www.w3.org/2000/svg" width="16" height="14" fill="none"><path stroke="#FB5B1D" stroke-width="2" d="M6.788 2.416C6.288 1.716 5.484 1 4.25 1c-.916 0-1.738.369-2.336 1.04l4.874.376Zm0 0c.063.088.122.176.177.265l.85-.527m-1.027.262 1.027-.262m0 0-.85.527a1.22 1.22 0 0 0 2.07 0l-.779-.483m-.441-.044.441.044m0 0 .78.483c.054-.089.113-.177.176-.265.5-.7 1.304-1.416 2.538-1.416.916 0 1.738.369 2.335 1.04l-5.829.158Zm-5.858 5.58c.932 1.098 2.293 2.25 3.977 3.671l.002.002c.52.438 1.057.893 1.623 1.38.564-.486 1.1-.938 1.618-1.375l.007-.007c1.684-1.42 3.045-2.573 3.977-3.67C14.612 6.587 15 5.581 15 4.565c0-.985-.336-1.876-.914-2.526L2.398 7.778Zm0 0C1.388 6.588 1 5.582 1 4.566c0-.985.337-1.876.914-2.526l.484 5.738Z"/></svg>